<svg width="19" height="19" viewBox="0 0 19 19" fill="none" xmlns="http://www.w3.org/2000/svg">
<path fill-rule="evenodd" clip-rule="evenodd" d="M1.27662 1.27662C1.64545 0.907793 2.24344 0.907793 2.61227 1.27662L9.5 8.16435L16.3877 1.27662C16.7566 0.907793 17.3546 0.907793 17.7234 1.27662C18.0922 1.64545 18.0922 2.24344 17.7234 2.61227L10.8356 9.5L17.7234 16.3877C18.0922 16.7566 18.0922 17.3546 17.7234 17.7234C17.3546 18.0922 16.7566 18.0922 16.3877 17.7234L9.5 10.8356L2.61227 17.7234C2.24344 18.0922 1.64545 18.0922 1.27662 17.7234C0.907793 17.3546 0.907793 16.7566 1.27662 16.3877L8.16435 9.5L1.27662 2.61227C0.907793 2.24344 0.907793 1.64545 1.27662 1.27662Z" fill="#5D616A" stroke="white" stroke-miterlimit="10" stroke-linecap="round" stroke-linejoin="round"/>
</svg>
