<svg width="22" height="22" viewBox="0 0 22 22" fill="none" xmlns="http://www.w3.org/2000/svg">
<path d="M1 13.2218C1.92235 13.9351 3.30809 14.3518 4.88941 14.3329C6.47073 14.3518 7.85647 13.9351 8.77882 13.2218C9.70117 12.5084 11.0869 12.0918 12.6682 12.1106C14.2496 12.0918 15.6353 12.5084 16.5576 13.2218M6.55634 1C6.20464 1.25241 5.91967 1.58664 5.72606 1.9738C5.53245 2.36097 5.43602 2.78945 5.44508 3.22222C5.43602 3.655 5.53245 4.08347 5.72606 4.47064C5.91967 4.85781 6.20464 5.19203 6.55634 5.44444M11.0014 1C10.6497 1.25241 10.3647 1.58664 10.1711 1.9738C9.97749 2.36097 9.88106 2.78945 9.89012 3.22222C9.88106 3.655 9.97749 4.08347 10.1711 4.47064C10.3647 4.85781 10.6497 5.19203 11.0014 5.44444M16.2753 16.2516C16.7716 16.4794 17.3163 16.5818 17.8614 16.5498C18.4066 16.5179 18.9355 16.3525 19.4018 16.0682C19.868 15.784 20.2573 15.3896 20.5354 14.9197C20.8135 14.4497 20.9718 13.9187 20.9966 13.3733C21.0213 12.8278 20.9117 12.2847 20.6773 11.7915C20.4429 11.2983 20.091 10.8703 19.6524 10.545C19.2138 10.2197 18.702 10.0071 18.162 9.92595C17.622 9.84476 17.0703 9.89744 16.5554 10.0794M1 8.77778H16.5576V14.3333C16.5576 16.1014 15.8552 17.7971 14.6048 19.0474C13.3543 20.2976 11.6584 21 9.89008 21H7.66756C5.89921 21 4.20329 20.2976 2.95288 19.0474C1.70247 17.7971 1 16.1014 1 14.3333V8.77778Z" stroke="black" stroke-linecap="round" stroke-linejoin="round"/>
</svg>
