<svg width="62" height="47" viewBox="0 0 62 47" fill="none" xmlns="http://www.w3.org/2000/svg">
<path fill-rule="evenodd" clip-rule="evenodd" d="M28.257 26.5958C22.397 26.5958 17.6465 31.0452 17.6465 36.5341V46.4727H28.257C34.1163 46.4727 38.8671 42.0226 38.8671 36.5341C38.8671 31.0452 34.1163 26.5958 28.257 26.5958Z" fill="black"/>
<path fill-rule="evenodd" clip-rule="evenodd" d="M16.4302 38.8565C15.2326 42.0657 12.5985 43.9745 7.07881 43.9745C5.57921 43.9347 4.0764 43.9543 2.57648 43.9863C1.28711 44.014 0.105918 45.226 0 46.456C0.146482 46.4738 6.81449 46.4822 9.99976 46.456C12.055 46.4388 14.3765 45.9988 16.4302 44.3135V38.8565Z" fill="black"/>
<path d="M33.6895 46.3906H42.4687C42.4687 42.892 41.0236 42.1746 38.5105 42.0769C37.3779 43.9104 35.7019 45.4133 33.6895 46.3906Z" fill="black"/>
<path d="M39.7229 33.7581C39.7229 33.7581 39.7255 33.7699 39.729 33.7889C39.7741 33.9544 39.815 34.1221 39.8523 34.2909C39.9367 34.5717 40.0355 34.7406 40.0558 34.116C40.0567 33.9469 40.0567 33.7644 40.0567 33.5705V33.5684C40.068 27.4167 40.1012 12.0149 40.1012 12.0149L24.1117 25.7265C23.6539 26.2012 23.8023 26.2374 23.9891 26.1924C24.0637 26.165 24.1397 26.1409 24.2151 26.1152C24.2341 26.1068 24.2463 26.1014 24.2463 26.1014C24.2463 26.1014 24.2376 26.1056 24.2286 26.1107C25.489 25.6795 26.8472 25.4397 28.2654 25.4397C33.7725 25.4397 38.4074 28.983 39.7219 33.7632C39.7219 33.7611 39.7229 33.7581 39.7229 33.7581Z" fill="black"/>
<path d="M47.0623 42.0636V31.2216L41.3633 34.3194C42.3481 38.0328 43.3323 40.1373 44.3206 43.8497C44.5514 44.7164 44.8206 45.5743 45.0585 46.3906H51.7552C51.7552 42.5645 50.027 42.0636 47.0623 42.0636Z" fill="black"/>
<path d="M48.4167 6.86011C48.4167 6.32304 48.455 0.00275588 48.455 0.00275588C46.8028 -0.0117187 47.3201 0.00908851 45.6689 0.00908851C42.0123 0.00908851 41.3633 2.4553 41.3633 6.3728V9.15886C41.3668 9.44473 41.3694 9.73121 41.372 10.0177C41.3784 10.7236 41.6289 10.9435 42.3864 10.957H44.4069C45.063 10.945 48.4167 10.957 48.4167 6.86011Z" fill="black"/>
<path d="M61.036 2.58736C61.036 2.58736 58.1569 2.518 57.2925 2.518C53.3494 2.518 53.7171 0.0196364 51.4583 0.0196364C51.4416 0.0196364 49.7781 0.0193348 49.6381 0.0193348C49.6381 0.0193348 49.5998 6.68939 49.5998 6.86489C49.5998 10.1455 47.794 12.0567 44.6448 12.1092L42.3861 12.1095C41.9952 12.1029 41.6553 12.042 41.3633 11.9334V14.1016H51.233C51.233 10.9618 52.4303 9.78815 56.3634 9.78815C60.3947 9.78815 60.9002 8.25958 61.0138 6.79433C61.1197 5.44367 61.036 4.08035 61.036 2.58736Z" fill="black"/>
<path d="M51.2703 15.3152C51.2703 15.3152 43.4227 15.3369 42.0036 15.3164C41.9981 15.3164 41.994 15.3152 41.9885 15.3152H41.3633V32.875C41.3633 32.875 48.0364 29.4629 49.6094 27.643C50.6451 26.4438 51.2542 25.2945 51.2703 23.7509C51.289 22.0323 51.2703 15.3152 51.2703 15.3152Z" fill="black"/>
</svg>
