<svg width="31" height="25" viewBox="0 0 31 25" fill="none" xmlns="http://www.w3.org/2000/svg">
<path fill-rule="evenodd" clip-rule="evenodd" d="M14.3517 13.8911C11.3767 13.8911 8.96484 16.2152 8.96484 19.0822V24.2734H14.3517C17.3265 24.2734 19.7384 21.949 19.7384 19.0822C19.7384 16.2152 17.3265 13.8911 14.3517 13.8911Z" fill="#5398FF"/>
<path fill-rule="evenodd" clip-rule="evenodd" d="M8.34151 20.2953C7.73349 21.9715 6.39616 22.9686 3.59387 22.9686C2.83253 22.9478 2.06956 22.958 1.30806 22.9747C0.65346 22.9892 0.053774 23.6222 0 24.2647C0.0743683 24.274 3.45968 24.2784 5.07682 24.2647C6.12027 24.2558 7.29888 24.0259 8.34151 23.1456V20.2953Z" fill="#5398FF"/>
<path d="M17.1074 24.2246H21.5646C21.5646 22.3972 20.8309 22.0224 19.555 21.9714C18.98 22.9291 18.1291 23.7141 17.1074 24.2246Z" fill="#5398FF"/>
<path d="M20.1675 17.6369C20.1675 17.6369 20.1688 17.6431 20.1706 17.653C20.1935 17.7394 20.2142 17.827 20.2332 17.9152C20.276 18.0619 20.3262 18.1501 20.3365 17.8239C20.337 17.7355 20.337 17.6402 20.337 17.5389V17.5378C20.3427 14.3246 20.3595 6.27968 20.3595 6.27968L12.2418 13.4417C12.0094 13.6897 12.0847 13.7086 12.1795 13.6851C12.2174 13.6708 12.256 13.6582 12.2943 13.6448C12.3039 13.6404 12.3101 13.6375 12.3101 13.6375C12.3101 13.6375 12.3057 13.6397 12.3011 13.6424C12.941 13.4172 13.6306 13.2919 14.3506 13.2919C17.1465 13.2919 19.4996 15.1427 20.167 17.6396C20.167 17.6385 20.1675 17.6369 20.1675 17.6369Z" fill="#5398FF"/>
<path d="M23.8894 21.9645V16.3013L20.9961 17.9194C21.4961 19.859 21.9957 20.9583 22.4975 22.8974C22.6147 23.3501 22.7513 23.7982 22.8721 24.2246H26.272C26.272 22.2261 25.3946 21.9645 23.8894 21.9645Z" fill="#5398FF"/>
<path d="M24.577 3.58464C24.577 3.30412 24.5965 0.00281132 24.5965 0.00281132C23.7577 -0.00474928 24.0203 0.00611906 23.182 0.00611906C21.3256 0.00611906 20.9961 1.28386 20.9961 3.3301V4.78536C20.9979 4.93468 20.9992 5.08432 21.0005 5.23396C21.0038 5.60269 21.1309 5.71752 21.5155 5.72461H22.5413C22.8744 5.71831 24.577 5.72461 24.577 3.58464Z" fill="#5398FF"/>
<path d="M30.9838 1.35097C30.9838 1.35097 29.5221 1.31474 29.0833 1.31474C27.0814 1.31474 27.268 0.00975418 26.1213 0.00975418C26.1128 0.00975418 25.2683 0.00959666 25.1972 0.00959666C25.1972 0.00959666 25.1777 3.4936 25.1777 3.58527C25.1777 5.29884 24.2609 6.29715 22.6621 6.32455L21.5154 6.32471C21.3169 6.32125 21.1443 6.28943 20.9961 6.23273V7.36523H26.0069C26.0069 5.72522 26.6147 5.11219 28.6116 5.11219C30.6583 5.11219 30.9149 4.31376 30.9726 3.54841C31.0263 2.84292 30.9838 2.13081 30.9838 1.35097Z" fill="#5398FF"/>
<path d="M26.0258 7.99587C26.0258 7.99587 22.0417 8.00721 21.3212 7.9965C21.3184 7.9965 21.3163 7.99587 21.3135 7.99587H20.9961V17.168C20.9961 17.168 24.384 15.3857 25.1826 14.4351C25.7084 13.8087 26.0177 13.2084 26.0258 12.4021C26.0353 11.5045 26.0258 7.99587 26.0258 7.99587Z" fill="#5398FF"/>
</svg>
