<svg width="19" height="23" viewBox="0 0 19 23" fill="none" xmlns="http://www.w3.org/2000/svg">
<path d="M3.25781 1C2.01086 1 1 1.99896 1 3.23125V19.7687C1 21.001 2.01086 22 3.25781 22H15.7422C16.9891 22 18 21.001 18 19.7687V8.56746C18 8.25418 17.8741 7.95372 17.6499 7.73219L11.1877 1.34598C10.9635 1.12445 10.6595 1 10.3424 1H3.25781ZM2.32812 3.23125C2.32812 2.72384 2.74436 2.3125 3.25781 2.3125H9.5V6.90625C9.5 7.99356 10.3919 8.875 11.4922 8.875H16.6719V19.7687C16.6719 20.2762 16.2556 20.6875 15.7422 20.6875H3.25781C2.74436 20.6875 2.32812 20.2762 2.32812 19.7687V3.23125ZM15.5999 7.5625H11.4922C11.1254 7.5625 10.8281 7.26869 10.8281 6.90625V2.84683L15.5999 7.5625Z" fill="#212121" stroke="#DBEAFE" stroke-width="0.5"/>
</svg>
