<svg width="21" height="18" viewBox="0 0 21 18" fill="none" xmlns="http://www.w3.org/2000/svg">
<rect x="1.00586" y="1" width="19.4122" height="1.32356" rx="0.66178" fill="#E3E8FF" stroke="#2D2D31" stroke-width="0.3"/>
<rect x="1.00586" y="16.1465" width="19.4122" height="1.32356" rx="0.66178" fill="#E3E8FF" stroke="#2D2D31" stroke-width="0.3"/>
<rect x="6.66406" y="9.26953" width="12.7822" height="1.32356" rx="0.66178" fill="#E3E8FF" stroke="#2D2D31" stroke-width="0.3"/>
<rect x="1" y="9.24414" width="3.39327" height="1.32356" rx="0.66178" fill="#E3E8FF" stroke="#2D2D31" stroke-width="0.3"/>
<rect x="4.38672" y="8.06055" width="2.49813" height="1.32254" rx="0.661269" transform="rotate(90 4.38672 8.06055)" fill="#E3E8FF" stroke="#2D2D31" stroke-width="0.3"/>
<rect x="7.91406" y="8.06055" width="2.49813" height="1.32254" rx="0.661269" transform="rotate(90 7.91406 8.06055)" fill="#E3E8FF" stroke="#2D2D31" stroke-width="0.3"/>
<rect x="11.7402" y="14.8262" width="1.91033" height="1.32254" rx="0.661269" transform="rotate(90 11.7402 14.8262)" fill="#E3E8FF" stroke="#2D2D31" stroke-width="0.3"/>
<rect x="8.94531" y="3.35352" width="2.05728" height="1.32254" rx="0.661269" fill="#E3E8FF" stroke="#2D2D31" stroke-width="0.3"/>
<rect x="9.82617" y="4.67773" width="3.5295" height="1.32356" rx="0.66178" transform="rotate(-90 9.82617 4.67773)" fill="#E3E8FF" stroke="#2D2D31" stroke-width="0.3"/>
<rect x="1.00586" y="17.1777" width="16.0298" height="1.32356" rx="0.661781" transform="rotate(-90 1.00586 17.1777)" fill="#E3E8FF" stroke="#2D2D31" stroke-width="0.3"/>
<rect x="19.0938" y="17.4707" width="16.3239" height="1.32356" rx="0.661781" transform="rotate(-90 19.0938 17.4707)" fill="#E3E8FF" stroke="#2D2D31" stroke-width="0.3"/>
</svg>
