<svg width="26" height="28" viewBox="0 0 26 28" fill="none" xmlns="http://www.w3.org/2000/svg">
<path d="M18.3333 26.875V21.2815C18.3333 20.4574 17.7363 19.7894 17 19.7894H8.99996C8.26358 19.7894 7.66663 20.4574 7.66663 21.2815V26.875M25 21.2329C25 27.625 24.9999 27.25 13 27.25C1 27.25 1 27.625 1 20.875C1.00004 17.6799 1 13.8248 1 12.625C1 10.375 2.33333 9.625 11.5167 1.50654C12.4082 0.831153 13.5918 0.831152 14.4832 1.50654C23.6667 9.625 25 10.375 25 12.625C25 18.2356 25 16.5457 25 21.2329Z" stroke="#3A4253" stroke-linecap="round"/>
</svg>
