<svg width="18" height="19" viewBox="0 0 18 19" fill="none" xmlns="http://www.w3.org/2000/svg">
<path d="M12.5555 18.25V14.521C12.5555 13.9716 12.1576 13.5262 11.6666 13.5262H6.33331C5.84239 13.5262 5.44442 13.9716 5.44442 14.521V18.25M17 14.4886C17 18.75 17 18.5 8.99998 18.5C1 18.5 1 18.75 1 14.25C1.00003 12.12 1 9.54986 1 8.75C1 7.25 1.88889 6.75 8.01114 1.3377C8.60545 0.887435 9.39451 0.887435 9.98882 1.33769C16.1111 6.75 17 7.25 17 8.75C17 12.4904 17 11.3638 17 14.4886Z" stroke="#5D616A" stroke-linecap="round"/>
</svg>
