<svg width="26" height="26" viewBox="0 0 26 26" fill="none" xmlns="http://www.w3.org/2000/svg">
<path d="M18.3333 24.6534V19.5402C18.3333 18.7868 17.7363 18.1761 17 18.1761H8.99996C8.26358 18.1761 7.66663 18.7868 7.66663 19.5402V24.6534M25 19.4957C25 25.339 24.9999 24.9962 13 24.9962C1 24.9962 1 25.339 1 19.1686C1.00004 16.2478 1 12.7237 1 11.6269C1 9.57008 2.33333 8.88447 11.5167 1.46305C12.4082 0.84565 13.5918 0.845649 14.4832 1.46305C23.6667 8.88447 25 9.57008 25 11.6269C25 16.7558 25 15.211 25 19.4957Z" stroke="#A6AAB2" stroke-linecap="round"/>
</svg>
