<svg width="18" height="20" viewBox="0 0 18 20" fill="none" xmlns="http://www.w3.org/2000/svg">
<path d="M12.8838 18.7401V14.9051C12.8838 14.3401 12.4745 13.8821 11.9697 13.8821H6.48482C5.97996 13.8821 5.57068 14.3401 5.57068 14.9051V18.7401M17.4545 14.8718C17.4545 19.2543 17.4545 18.9972 9.22726 18.9972C1 18.9972 1 19.2543 1 14.6264C1.00003 12.4359 1 9.79276 1 8.97017C1 7.42756 1.91414 6.91335 8.21033 1.34729C8.82152 0.884237 9.633 0.884237 10.2442 1.34729C16.5404 6.91335 17.4545 7.42756 17.4545 8.97017C17.4545 12.8168 17.4546 11.6582 17.4545 14.8718Z" stroke="#E3E8FF" stroke-linecap="round"/>
</svg>
