<svg width="746" height="1024" viewBox="0 0 746 1024" fill="none" xmlns="http://www.w3.org/2000/svg">
<g style="mix-blend-mode:multiply">
<path d="M938.117 5.43359H1.88184V1021.28H938.117V5.43359Z" stroke="#BBC8DC" stroke-opacity="0.5" stroke-miterlimit="10"/>
<path d="M470.188 1021.28V5.43359" stroke="#BBC8DC" stroke-opacity="0.5" stroke-miterlimit="10"/>
<path d="M417.108 120.117H107.288V792.457H417.108V120.117Z" stroke="#BBC8DC" stroke-opacity="0.5" stroke-miterlimit="10"/>
<path d="M832.71 120.117H522.891V792.457H832.71V120.117Z" stroke="#BBC8DC" stroke-opacity="0.5" stroke-miterlimit="10"/>
<path d="M313.96 344.049L626.038 5.43359V344.049" stroke="#BBC8DC" stroke-opacity="0.5" stroke-miterlimit="10"/>
<path d="M626.038 344.049L313.96 5.43359V344.049" stroke="#BBC8DC" stroke-opacity="0.5" stroke-miterlimit="10"/>
<path d="M1.88184 513.086H938.117" stroke="#BBC8DC" stroke-opacity="0.5" stroke-miterlimit="10"/>
<path d="M1.88184 513.086L470.188 1021.28" stroke="#BBC8DC" stroke-opacity="0.5" stroke-miterlimit="10"/>
<path d="M938.117 513.086L470.188 1021.28" stroke="#BBC8DC" stroke-opacity="0.5" stroke-miterlimit="10"/>
<path d="M1.88184 1021.28L938.117 513.086" stroke="#BBC8DC" stroke-opacity="0.5" stroke-miterlimit="10"/>
<path d="M938.117 1021.28L1.88184 513.086" stroke="#BBC8DC" stroke-opacity="0.5" stroke-miterlimit="10"/>
<path d="M1.88184 1021.28L313.96 5.43359" stroke="#BBC8DC" stroke-opacity="0.5" stroke-miterlimit="10"/>
<path d="M938.117 1021.28L626.039 5.43359" stroke="#BBC8DC" stroke-opacity="0.5" stroke-miterlimit="10"/>
<path d="M470.188 5.43359L1.88184 513.085" stroke="#BBC8DC" stroke-opacity="0.5" stroke-miterlimit="10"/>
<path d="M938.117 513.085L470.188 5.43359" stroke="#BBC8DC" stroke-opacity="0.5" stroke-miterlimit="10"/>
<path d="M1.88184 5.43359L470.188 1021.28" stroke="#BBC8DC" stroke-opacity="0.5" stroke-miterlimit="10"/>
<path d="M938.117 513.085L1.88184 5.43359" stroke="#BBC8DC" stroke-opacity="0.5" stroke-miterlimit="10"/>
<path d="M938.117 5.43359L470.188 1021.28" stroke="#BBC8DC" stroke-opacity="0.5" stroke-miterlimit="10"/>
<path d="M1.88184 513.085L938.117 5.43359" stroke="#BBC8DC" stroke-opacity="0.5" stroke-miterlimit="10"/>
<path d="M938.117 1021.28L470.188 5.43359" stroke="#BBC8DC" stroke-opacity="0.5" stroke-miterlimit="10"/>
<path d="M1.88184 5.43359L938.117 1021.28" stroke="#BBC8DC" stroke-opacity="0.5" stroke-miterlimit="10"/>
<path d="M1.88184 1021.28L470.188 5.43359" stroke="#BBC8DC" stroke-opacity="0.5" stroke-miterlimit="10"/>
<path d="M938.117 5.43359L1.88184 1021.28" stroke="#BBC8DC" stroke-opacity="0.5" stroke-miterlimit="10"/>
</g>
</svg>
