<svg width="20" height="16" viewBox="0 0 20 16" fill="none" xmlns="http://www.w3.org/2000/svg">
<rect x="0.00585938" width="19.4122" height="1" fill="#5D616A"/>
<rect y="15" width="19.4122" height="1" fill="#5D616A"/>
<rect x="5.66406" y="8.26953" width="12.7822" height="1" fill="#5D616A"/>
<rect y="8.24414" width="3.39327" height="1" fill="#5D616A"/>
<rect x="4" y="6.75" width="2.49813" height="1" transform="rotate(90 4 6.75)" fill="#5D616A"/>
<rect x="6.5" y="6.76953" width="2.49813" height="1" transform="rotate(90 6.5 6.76953)" fill="#5D616A"/>
<rect x="10.7402" y="13.8262" width="1.91033" height="1" transform="rotate(90 10.7402 13.8262)" fill="#5D616A"/>
<rect x="7.76953" y="3" width="2.05728" height="1" fill="#5D616A"/>
<rect x="8.82617" y="3.67773" width="3.5295" height="1" transform="rotate(-90 8.82617 3.67773)" fill="#5D616A"/>
<rect y="16" width="16" height="1" transform="rotate(-90 0 16)" fill="#5D616A"/>
<rect x="19" y="16" width="16" height="1" transform="rotate(-90 19 16)" fill="#5D616A"/>
</svg>
