<svg width="20" height="17" viewBox="0 0 20 17" fill="none" xmlns="http://www.w3.org/2000/svg">
<rect width="19.6956" height="0.881892" fill="black"/>
<rect y="16.1719" width="19.877" height="0.767573" fill="black"/>
<rect x="6.20215" y="8.62109" width="13.0882" height="0.767573" fill="black"/>
<rect x="0.110352" y="8.59766" width="3.47451" height="0.767573" fill="black"/>
<rect x="3.70703" y="6.76562" width="2.55991" height="0.767573" transform="rotate(90 3.70703 6.76562)" fill="black"/>
<rect x="6.64648" y="6.76562" width="2.55991" height="0.767573" transform="rotate(90 6.64648 6.76562)" fill="black"/>
<rect x="11.1064" y="14.3125" width="1.95758" height="0.767573" transform="rotate(90 11.1064 14.3125)" fill="black"/>
<rect x="7.9375" y="3.0625" width="2.10816" height="0.767573" fill="black"/>
<rect x="9.40723" y="3.82812" width="3.52757" height="0.881892" transform="rotate(-90 9.40723 3.82812)" fill="black"/>
<rect y="16.418" width="16.4135" height="0.767573" transform="rotate(-90 0 16.418)" fill="black"/>
<rect x="19.1084" y="16.7148" width="16.7147" height="0.767573" transform="rotate(-90 19.1084 16.7148)" fill="black"/>
</svg>
