<svg width="16" height="19" viewBox="0 0 16 19" fill="none" xmlns="http://www.w3.org/2000/svg">
<path d="M2.87434 17.3365L2.87433 17.3367L2.88129 17.3369L2.9608 17.3397L2.9608 17.3398H2.96774H13.0323C13.7579 17.3398 14.3431 16.7606 14.3904 16.0389L14.3905 16.0389L14.3908 16.0324L14.3934 15.9505L14.3935 15.9505V15.9439V8.37021C14.3935 7.96142 14.7139 7.64011 15.0968 7.64011C15.4594 7.64011 15.7657 7.92803 15.7973 8.30595L15.8 8.37415V15.9439C15.8 17.4892 14.6135 18.7396 13.1402 18.7979L13.0304 18.8H2.96774C1.48061 18.8 0.259062 17.5864 0.202076 16.0556L0.2 15.9421V8.37021C0.2 7.96142 0.520333 7.64011 0.903226 7.64011C1.26588 7.64011 1.57214 7.92803 1.60378 8.30594L1.60645 8.37414V15.9439C1.60645 16.6777 2.16104 17.2869 2.87434 17.3365ZM8.57419 13.4194C8.57419 13.806 8.28708 14.115 7.93229 14.1467L7.86707 14.1495C7.50612 14.1474 7.20194 13.8602 7.17042 13.4836L7.16774 13.4154V3.17544V2.68231L6.82424 3.03612L4.35286 5.58173C4.35285 5.58174 4.35284 5.58174 4.35284 5.58175C4.09569 5.84653 3.69133 5.86266 3.41639 5.63191L3.35936 5.57851C3.10263 5.3109 3.08679 4.88721 3.31366 4.60064L3.36577 4.54162L7.36353 0.423866L7.36355 0.423891L7.36616 0.421096C7.38772 0.39802 7.41071 0.376446 7.43495 0.356523L7.48835 0.317325C7.48849 0.317223 7.48864 0.317122 7.48878 0.31702C7.49997 0.30893 7.51254 0.300848 7.52679 0.292514L7.53122 0.290286L7.53133 0.290495L7.53976 0.285733C7.60886 0.246689 7.68531 0.21975 7.76656 0.207221L7.82942 0.200742L7.90066 0.20008L7.96107 0.205318L8.03524 0.219169L8.06087 0.22614C8.0612 0.226233 8.06153 0.226327 8.06186 0.226422C8.13774 0.248116 8.21106 0.28363 8.27824 0.333112L8.33027 0.375703L8.36998 0.413673L12.3819 4.54503C12.6593 4.83065 12.6593 5.2961 12.3819 5.58173C12.1248 5.84653 11.7204 5.86267 11.4455 5.63192L11.3882 5.57833L8.91768 3.03398L8.57419 2.68024V3.17331V13.4194Z" fill="#5D616A" stroke="white" stroke-width="0.4"/>
</svg>
