<svg width="17" height="20" viewBox="0 0 17 20" fill="none" xmlns="http://www.w3.org/2000/svg">
<path d="M3.05526 17.8777L3.05525 17.8779L3.06201 17.8781L3.14649 17.8809L3.14648 17.881H3.15323H13.8468C14.6057 17.881 15.2269 17.2916 15.2773 16.5454L15.2775 16.5454L15.2777 16.5386L15.2805 16.4542L15.2806 16.4542V16.4474V8.63453C15.2806 8.21513 15.6207 7.87506 16.0403 7.87506C16.4375 7.87506 16.7637 8.17997 16.7972 8.56823L16.8 8.63856V16.4474C16.8 18.0395 15.5396 19.3373 13.9621 19.3978L13.8449 19.4H3.15323C1.56077 19.4 0.262679 18.1398 0.202206 16.5627L0.2 16.4455V8.63453C0.2 8.21513 0.54008 7.87506 0.959677 7.87506C1.3569 7.87506 1.68303 8.17996 1.71651 8.56822L1.71935 8.63857V16.4474C1.71935 17.2063 2.30898 17.8273 3.05526 17.8777ZM9.12258 13.8431C9.12258 14.2402 8.81767 14.5663 8.42924 14.5998L8.35909 14.6026C7.9636 14.6007 7.63945 14.2965 7.60607 13.9094L7.60323 13.8391V3.27571V2.79285L7.2618 3.1343L4.63595 5.76029C4.63594 5.7603 4.63594 5.7603 4.63593 5.76031C4.35787 6.03829 3.91764 6.05577 3.61942 5.81257L3.55842 5.75712C3.28341 5.47897 3.26698 5.04109 3.50929 4.74409L3.56494 4.68289L7.8127 0.434955L7.81273 0.434981L7.81539 0.432222C7.83864 0.408062 7.86346 0.38544 7.8897 0.364524L7.94677 0.323856C7.94691 0.323754 7.94706 0.323652 7.9472 0.32355C7.9596 0.314849 7.97346 0.306208 7.98908 0.297353L7.9942 0.294854L7.9943 0.295058L8.00265 0.290478C8.07769 0.249311 8.16096 0.220811 8.24965 0.207588L8.31773 0.200774L8.39516 0.200076L8.4611 0.205627L8.54147 0.220199L8.56957 0.227619C8.5699 0.227709 8.57022 0.227799 8.57055 0.227889C8.65326 0.25084 8.7329 0.288359 8.80557 0.340376L8.8614 0.384753L8.90402 0.424308L13.1669 4.68626C13.4635 4.98285 13.4635 5.4637 13.1669 5.76029C12.8888 6.03829 12.4486 6.05577 12.1503 5.81258L12.0891 5.75693L9.46399 3.13209L9.12258 2.79071V3.27352V13.8431Z" fill="#E3E8FF" stroke="#2D2D31" stroke-width="0.4"/>
</svg>
